<mxfile host="app.diagrams.net" agent="Mozilla/5.0 (Windows NT 10.0; Win64; x64) AppleWebKit/537.36 (KHTML, like Gecko) Chrome/131.0.0.0 Safari/537.36" version="25.0.3">
  <diagram name="Trang-1" id="wHJKJFwP4XEF9qUdiewW">
    <mxGraphModel dx="2261" dy="738" grid="1" gridSize="10" guides="1" tooltips="1" connect="1" arrows="1" fold="1" page="1" pageScale="1" pageWidth="827" pageHeight="1169" math="1" shadow="0">
      <root>
        <mxCell id="0" />
        <mxCell id="1" parent="0" />
        <mxCell id="xC8ps1dQcY_S_Sjtmnwa-1" value="Bắt đầu" style="ellipse;whiteSpace=wrap;html=1;" parent="1" vertex="1">
          <mxGeometry x="-220" y="380" width="120" height="80" as="geometry" />
        </mxCell>
        <mxCell id="xC8ps1dQcY_S_Sjtmnwa-2" value="các tham số đầu vào:" style="shape=parallelogram;perimeter=parallelogramPerimeter;whiteSpace=wrap;html=1;fixedSize=1;" parent="1" vertex="1">
          <mxGeometry x="-30" y="360" width="170" height="120" as="geometry" />
        </mxCell>
        <mxCell id="xC8ps1dQcY_S_Sjtmnwa-3" value="Khởi tạo các tham số đầu vào&amp;nbsp;&lt;b&gt;w&lt;/b&gt;(0), t = 0, r0&amp;nbsp;" style="rounded=0;whiteSpace=wrap;html=1;" parent="1" vertex="1">
          <mxGeometry x="196.54" y="370" width="160" height="100" as="geometry" />
        </mxCell>
        <mxCell id="xC8ps1dQcY_S_Sjtmnwa-4" value="t &amp;lt; T" style="rhombus;whiteSpace=wrap;html=1;" parent="1" vertex="1">
          <mxGeometry x="240" y="854.5" width="80" height="80" as="geometry" />
        </mxCell>
        <mxCell id="mgKCpu8R8uO8z9F1_llr-3" style="edgeStyle=orthogonalEdgeStyle;rounded=0;orthogonalLoop=1;jettySize=auto;html=1;exitX=0.5;exitY=1;exitDx=0;exitDy=0;" parent="1" source="xC8ps1dQcY_S_Sjtmnwa-5" target="mgKCpu8R8uO8z9F1_llr-1" edge="1">
          <mxGeometry relative="1" as="geometry" />
        </mxCell>
        <mxCell id="xC8ps1dQcY_S_Sjtmnwa-5" value="Đầu ra: &lt;b&gt;w&lt;/b&gt;(T)" style="shape=parallelogram;perimeter=parallelogramPerimeter;whiteSpace=wrap;html=1;fixedSize=1;" parent="1" vertex="1">
          <mxGeometry x="220" y="980" width="120" height="60" as="geometry" />
        </mxCell>
        <mxCell id="xC8ps1dQcY_S_Sjtmnwa-6" value="No" style="endArrow=classic;html=1;rounded=0;exitX=0.5;exitY=1;exitDx=0;exitDy=0;entryX=0.5;entryY=0;entryDx=0;entryDy=0;" parent="1" source="xC8ps1dQcY_S_Sjtmnwa-4" target="xC8ps1dQcY_S_Sjtmnwa-5" edge="1">
          <mxGeometry width="50" height="50" relative="1" as="geometry">
            <mxPoint x="250" y="1020" as="sourcePoint" />
            <mxPoint x="300" y="970" as="targetPoint" />
          </mxGeometry>
        </mxCell>
        <mxCell id="xC8ps1dQcY_S_Sjtmnwa-8" value="Yes" style="endArrow=classic;html=1;rounded=0;exitX=0;exitY=0.5;exitDx=0;exitDy=0;entryX=1;entryY=0.5;entryDx=0;entryDy=0;" parent="1" source="xC8ps1dQcY_S_Sjtmnwa-4" target="xC8ps1dQcY_S_Sjtmnwa-9" edge="1">
          <mxGeometry width="50" height="50" relative="1" as="geometry">
            <mxPoint x="250" y="1020" as="sourcePoint" />
            <mxPoint x="190" y="895" as="targetPoint" />
          </mxGeometry>
        </mxCell>
        <mxCell id="xC8ps1dQcY_S_Sjtmnwa-9" value="t = t + 1" style="rounded=0;whiteSpace=wrap;html=1;" parent="1" vertex="1">
          <mxGeometry x="-35" y="864.5" width="120" height="60" as="geometry" />
        </mxCell>
        <mxCell id="xC8ps1dQcY_S_Sjtmnwa-14" value="" style="rounded=0;whiteSpace=wrap;html=1;dashed=1;" parent="1" vertex="1">
          <mxGeometry x="-190" y="1023" width="350" height="110" as="geometry" />
        </mxCell>
        <mxCell id="xC8ps1dQcY_S_Sjtmnwa-12" value="" style="rounded=0;whiteSpace=wrap;html=1;" parent="1" vertex="1">
          <mxGeometry x="-90" y="1048" width="230" height="60" as="geometry" />
        </mxCell>
        <mxCell id="xC8ps1dQcY_S_Sjtmnwa-15" value="&lt;b&gt;&lt;font style=&quot;font-size: 20px;&quot;&gt;Cập nhật cục bộ&lt;/font&gt;&lt;/b&gt;" style="text;html=1;align=center;verticalAlign=middle;whiteSpace=wrap;rounded=0;" parent="1" vertex="1">
          <mxGeometry x="-160" y="1063" width="60" height="30" as="geometry" />
        </mxCell>
        <mxCell id="xC8ps1dQcY_S_Sjtmnwa-22" value="" style="endArrow=classic;html=1;rounded=0;exitX=1;exitY=0.5;exitDx=0;exitDy=0;entryX=0;entryY=0.5;entryDx=0;entryDy=0;" parent="1" source="xC8ps1dQcY_S_Sjtmnwa-2" target="xC8ps1dQcY_S_Sjtmnwa-3" edge="1">
          <mxGeometry width="50" height="50" relative="1" as="geometry">
            <mxPoint x="-50" y="520" as="sourcePoint" />
            <mxPoint y="470" as="targetPoint" />
          </mxGeometry>
        </mxCell>
        <mxCell id="xC8ps1dQcY_S_Sjtmnwa-23" value="" style="endArrow=classic;html=1;rounded=0;exitX=1;exitY=0.5;exitDx=0;exitDy=0;entryX=0;entryY=0.5;entryDx=0;entryDy=0;" parent="1" source="xC8ps1dQcY_S_Sjtmnwa-1" target="xC8ps1dQcY_S_Sjtmnwa-2" edge="1">
          <mxGeometry width="50" height="50" relative="1" as="geometry">
            <mxPoint x="-50" y="410" as="sourcePoint" />
            <mxPoint y="360" as="targetPoint" />
          </mxGeometry>
        </mxCell>
        <mxCell id="mgKCpu8R8uO8z9F1_llr-1" value="Kết thúc" style="ellipse;whiteSpace=wrap;html=1;" parent="1" vertex="1">
          <mxGeometry x="220" y="1088" width="120" height="80" as="geometry" />
        </mxCell>
        <mxCell id="xC8ps1dQcY_S_Sjtmnwa-20" value="" style="endArrow=classic;html=1;rounded=0;entryX=1;entryY=0.5;entryDx=0;entryDy=0;exitX=1;exitY=0.5;exitDx=0;exitDy=0;" parent="1" source="mgKCpu8R8uO8z9F1_llr-13" target="xC8ps1dQcY_S_Sjtmnwa-4" edge="1">
          <mxGeometry width="50" height="50" relative="1" as="geometry">
            <mxPoint x="360" y="1430" as="sourcePoint" />
            <mxPoint x="520" y="800" as="targetPoint" />
            <Array as="points">
              <mxPoint x="520" y="1266" />
              <mxPoint x="520" y="895" />
            </Array>
          </mxGeometry>
        </mxCell>
        <mxCell id="mgKCpu8R8uO8z9F1_llr-5" value="" style="shape=image;verticalLabelPosition=bottom;labelBackgroundColor=default;verticalAlign=top;aspect=fixed;imageAspect=0;image=data:image/png,iVBORw0KGgoAAAANSUhEUgAAASIAAAAaCAYAAAAT4FHCAAAAAXNSR0IArs4c6QAAAARnQU1BAACxjwv8YQUAAAAJcEhZcwAADsMAAA7DAcdvqGQAAA1hSURBVHhe7Z0xeOLKEcf/SYNTQQcdvEqkgg5SQSroTCp4FXSQCl0F6a4zr4IOrjKpzFWQCl1lrjKuTCpwZVKBK+jgVZNZIUAICWQ/A/cS/b5PhyQksTu7Mzszu/L9gRg4ODg4XJA/ap8ODg4OF8MxRA4ODhfHMUQODg4XxzFEDg4OF+eihmjeLyNTGWhHB5h3UMi1MNUOHRzOwrSFXKGDuXZ4KWzryZmZdwrItcy0coBKpoz+WwQnZs0uwrBKkVidXrTDY8y6aZLSXZppxw42WcxoMplo24wW2umLsynXD1QmPbMupaU83ZsUbjGb0OxchX6jnpyM2ZAehsZKz6iblijdNdFKUe5IlYba4TEuNH0/QiWYg6fXR8GnnVIZo5HMYFnrQw5qpzYsoWSCaGYGaKU82rlzMsdI6WG01A41roJxJIOXKI89lv0aCg0xms4xaPWR7E9RCa++22Ksmw/RVJT/nWLQ6XOraFwFEU8G8RG1HbdkfG710PqXD82FgsyV9sUbmfYVzINJfGwTzNHJhKEUuD/GtVNrxjWEf/oEz+0EvdxO5z0BVnqitWsviEo5ye10KpaYj/pQlAY+f/oKVF8wkgPadxpLbrtgE5lBC0a1HNeCSC47GJX3lHkf1RydmcXdNYG9m314FIKXSk/aoZFhifz+Ell9fVpmNOy2qd1uUzECihRX+92n34uP9kJVyVq2k4c6pb3renVpqFZLq3M9TV5vmurtB5qoV38QL1WSkKC7d3sXok6gxPsfYI7oZ1LVwgtZ0OxMXpy1nrCmpEGI3X5se+wh6iq8vzbrJUiqmktkWPKT36xjLe7oWrSvDRW5gCGaUJ0V2Uy+L9UQe2cHDJHa8VyUv9cObTDhxozcPH1oxxGd4MM7/8k5bIgOKrUwGN4TDAA/qCG6z7ssle58WOsJcUuUeNA4XxmFg3Dg90Q7ujiM1Q71CF2J1I+by6PJ6kEzh1xuu1WUAZSK7lxFUZPIU6WyPdc8kFibKmg9JpDSu7zTARq5IH769G8+eEVLXj2nohgTYQFE+b4mhxj2mENpKvAEfHin5/8bmaPfyCDs88HHm8fjQzjXwdgQ3q2Z9mrIhFfX+jxXuAqkUGvI6j36W+ajDmq5OIKb53oQzJwpmT9mFzy4+t1cZwqlrC+HD3G5Z1KOJcYdGfGABx59eU3lMGWZlZFcy8En7omjbMh8Dji+9PmiKD8D33IB7drVFmR57ZVhOUZH3pVZONfEaC+h2ker6eH+aQhBmDmHH5VKEwNbSViWjV5PeGsOBmjqjtd6otexTZ8305P5CEqng06jgtYr4BkP0OnspwvOTiCKOJowU8twMobH1spGHEQzSJaIxNywGhF5JEKCXcHZgs8NqcrWGgjRDYcm6ni0mNF90U9S8Z5eDmXyulmCcXRVE5fCjRPP9FLxXkuumjxnchsjhKzcZgMPeXL78/TwsQOmTY+IZRQC+bNt2ub4ZvRQErK8prbh9qHwBkN56r5sv1hMupT3s0wM8poNuxwSTnReHss+77d041d8pEe0ulb0iVC+S5siLybUFeUwhM/7dVvQsB4jt9reRo9oQg/tew4NtycXL3WKQaL9AdmuRyTawsVhp66sogy311wGQ+jAdQ2ZeGmzbp7y7Rl/LdkOiYTutLMuVU5+1ovZQoQ6bcq6RL2z1NbqKK67TbgocTvc9nkzPeEyi1Dp6UZEDmm6O1uy/4hHxNK4jXFfMPueddDFdT3UMwX2QjM11hPCi9Gt1mhPJa8qYOlmnRcfUkni7zct9EL1mJe8EndAnaTU8Ms0/l5V9nBoxnTTBHYDH7RDKxYia++W2Kh9fA7HjiGa1NngxOqmHVa4/q68rgaTW1a0GJl6sKK+rNhHZx/EdQfDp483RC4xMGlntqxCiti6o0zqFLGo20Peze1tJzSzKps9QyRyGK7EnWlbPPF3OwZcGABW8l3F4b4dE22woLtr7qPXd/aVX+SbRL/e9Fl+RkL0cw672uqJlX6xnugHTGs9WfW/0+eH9BwzRKsy7fTpNWr4rbcL5thbR3SVgZx38c53VBoj/uyh0bqCn089f66xMytO1dAIFJDapPCnGAxe8fo8wnTHlf0AP/LXOQc9VrALzmHen/78CY++IOZNeesK29gqPVt+tynL+VyrHbvlrUckchnTGY14QYaHXexNANtX8D2S0clOR7IFGlewM+8wZ5e8Jm/Dl2AcmYrdcPXjiGdSJvXzIZmR8L2jqLKYKi08JnLImNQtWijAq+1v4TCu10A5sw2jwkkZzc3U3VsZQ1H+g4Bvib4Iawzb2BeG+2uHe/Qas/4ZQLnzGcFlB81/sZkqZOyH+kEZ5Qh//voFtQ5/Tpuojfxg44Svtabaj6fNGgapAqI7D7XSkz6XG5A4ZjPrLmtEKGzWv/e3CvYyIO/kV+7/5kwxP6b2mkE6zr1wsdgS88h4f3dNElu/BzGaqJZ9xiOFW/3chcM4w9Chura/1SPaG7EMzB6omvCS60SjhrlH1KXspuxHRmrVw9iOgGq4ySO2xdW7cJgScXnpuqoPX9hlFzMsZ/aIrJKQwxtuY81rUNvbqm7qaKn3iBbskHC7RYrU1oWeC27P0rs9Ir6GQ+T1LKf5xrJcP+JA/1K9XIuk7CHU+0TfZjk8lCT2Focrz4rDzZshe1t+8aldrGGpJ6rMXGTmfJwOex6RaWpALa9ZWL2L/ZXVcRmyMOOvv+CvPw+QKkQR5RFfteyVJGoD9pqS24UEInmdiYcRCCTR0I1mgcDeIhYLFB5Fy1uvQY8U3fUQjHiikJUROj4ZwcL5PIWt0RdJdRd6PfPfFl7CczCKgDYC+sJReL/1Vp7lEfoVGeNcCy2RePWsh9AreDb77yWAIDfNeGziegz6ePb49tYPPdZa2zVGGwZocoOnc0nVawhE43D1eqbtOO8peNb2VaYtVP4ZYM+hhhR7e5va8W8fGv0PE0Ay6ccjj/qpVMpiY1muf4z7p6Tt7jJGq/YIF3sR8WWfIwIRGdjDl5NxLXa+/Yy//BJAIRVEKiPOPKPGz2sFymAnfgcrPZn2OnwXlzmqHkFp9g5EB+dFilppZRjB/dz/Dm94xSMIWfUxGamAnJDT2u18fMScww29a+lLsnB9z3h9He86mYEAvM997DdjENGQtitYcvjFz9M9UmU84i4dDnD3OoaHo5oOMs0UyqbW7LREPzcQ/ZJDwRDqLUcVJP++RKmiC2vCMiqxL8jJ/T2HfN6vIe6L7hjzV75oRy5zBYXCV+3g/STlPKb/kNHSF3k5QqX8FbFyZk/m7uln/BTnsEKb/lpOeyhHo2iGOfxYr26LfkYj+gUZY93E6xPyN+1Aj1ECS4waOXzesVhr2ACzEKd7IQHfMxhtFDRYbiCt/A3J5r7KLscdlGu6snH/DLDZHBktLF/XfPZC5gF42eFwZiONkTrLKx8yTJvUBuBKFyDG66uMDHHq9XGAqGwS4lroyaD3HYglWbW52Tn8arDeGAeIk7E0ts2aMctbqKWJVo54EJPYIdEOLdE8I3toSeuYLvOkLrqySEap7tqeWyZCmH1XVDC7L7Ibx/f4E5SOhOj6zvjQVaJP//vHEEl10yTam3mim5CXvF7varaHwyOxv91E4nU39FkM63TtdZErlKBStUrFhEQuL+/fm5RfCyfhjVC6VKVqMUuJkJvcoSzd6hdNzlh+XpA3kqVqtUTZRIjc/MxqMaG6/26vn4rr2OHphkK6MqqhtVtX5s2FW4a3CfJyPSJZLkMpQRLXM1F9oN2gex0SzeilXeJyas8T9bx9MlzLLIZU1+qWZTmU0hG+nst8u2pvF9+b1qauVjO0EiVUGaQpxnKVsjeU5d9TZW5MkItJCX6GlK5SvVqkbDpGfn5eKHunm61kWG7FELeFlKBita6Tb5qqO+2xCuU2ieQ1C5a7W6JS95ayRd2rRupEgyjbkQkUNWnt55BqWyiRRIflrK65niy6WXJHqvR0X6Lr7KlfeZrQ0x33W24vtc+7uW8Wq3THYfMObBcSFjbArv6ddEGjuSFazRodXOS0WJjnFNRYNWI+u2SFWBpgsgzgnIjpWbvvVW2v5c2y3Ktp3JO9q6V7P828CHZyM/vYlsPR3zdiXx525CtyOi7TVbP8Oxb3tNPHp6jfipWeqHWwJ5jzIPJqEbMZYtFP7C1AvoghUhNY73hVY3bHozWPAj9QE/yf8j5D9LuBvZ+027C+6CD3lE+/YUrfLu/Uk/My4yjFS1n9Gp01TyWSbK75O5khmnRvKCYW48FFIXZljdZyeBN6U4ilusZSmsxe9HU4J2LB4eq9NCl7q8463esWYf6vMGunyW8zpB9WOdw70SzWm/XkzIhQ0fyvYvBgFYlQ9egCuBUX/OP5U7RSOUwrismb9kbmUHIZjMp2rnU4KeI1g95oN6XsiyIVff+81o/JHP1yBo14C03dbPA+S4hc+W+ftbTiLXpyZuYKcpkRyoq8N4s9qiVRCR6T3ZYL/y8edhuRr1te4WRt7eBgyqmNjF1+lHIYWM6xvPLszWy/p7zOfyfk4OBwcS76p2IdHBwcBI4hcnBwuDDAfwEYW0HoLArlgAAAAABJRU5ErkJggg==;" parent="1" vertex="1">
          <mxGeometry x="-83.07999999999998" y="1068" width="223.08" height="20" as="geometry" />
        </mxCell>
        <mxCell id="KOfnYtluvMMYCkwV_I0v-1" value="" style="rounded=0;whiteSpace=wrap;html=1;dashed=1;fillColor=#f8cecc;strokeColor=#b85450;" parent="1" vertex="1">
          <mxGeometry x="30" y="540" width="369.68" height="280" as="geometry" />
        </mxCell>
        <mxCell id="_i0A8njc_aDw7vqNazZR-6" value="" style="endArrow=classic;html=1;rounded=0;exitX=0.5;exitY=1;exitDx=0;exitDy=0;entryX=0.5;entryY=0;entryDx=0;entryDy=0;" parent="1" source="xC8ps1dQcY_S_Sjtmnwa-9" target="xC8ps1dQcY_S_Sjtmnwa-12" edge="1">
          <mxGeometry width="50" height="50" relative="1" as="geometry">
            <mxPoint x="50" y="1090" as="sourcePoint" />
            <mxPoint x="100" y="1040" as="targetPoint" />
          </mxGeometry>
        </mxCell>
        <mxCell id="_i0A8njc_aDw7vqNazZR-2" value="" style="endArrow=classic;html=1;rounded=0;exitX=0.5;exitY=1;exitDx=0;exitDy=0;entryX=0.5;entryY=0;entryDx=0;entryDy=0;" parent="1" source="xC8ps1dQcY_S_Sjtmnwa-12" target="xC8ps1dQcY_S_Sjtmnwa-19" edge="1">
          <mxGeometry width="50" height="50" relative="1" as="geometry">
            <mxPoint x="-130" y="1053" as="sourcePoint" />
            <mxPoint x="25" y="1169.07" as="targetPoint" />
          </mxGeometry>
        </mxCell>
        <mxCell id="xC8ps1dQcY_S_Sjtmnwa-13" value="" style="rounded=0;whiteSpace=wrap;html=1;" parent="1" vertex="1">
          <mxGeometry x="193.45000000000005" y="560" width="170" height="60" as="geometry" />
        </mxCell>
        <mxCell id="xC8ps1dQcY_S_Sjtmnwa-18" value="" style="rounded=0;whiteSpace=wrap;html=1;" parent="1" vertex="1">
          <mxGeometry x="193.45000000000007" y="690" width="170" height="110" as="geometry" />
        </mxCell>
        <mxCell id="mgKCpu8R8uO8z9F1_llr-4" value="" style="shape=image;verticalLabelPosition=bottom;labelBackgroundColor=default;verticalAlign=top;aspect=fixed;imageAspect=0;image=data:image/png,iVBORw0KGgoAAAANSUhEUgAAATAAAAB0CAYAAAACRW49AAAAAXNSR0IArs4c6QAAAARnQU1BAACxjwv8YQUAAAAJcEhZcwAADsMAAA7DAcdvqGQAABUDSURBVHhe7Z0teCLJ1sf/8xoyCq6CVTAKRsEquAquglGwClbBqsSFUbBuXFgFr4JVYVUYBVfBqPQqeBWsglEwClbRq2BUvVX9EQgf4furc37PU4HuBtLdVP0559SpqjeMA4IgiAvkf7RHgiCIi4MEjCCIi4UEjCCIi4UEjCCIi4UEjCCIi4UEjCCIi4UEjFjBGPJggI5UQaUioSOPtf0a4x5anZl9BHEkSMCIxcgtFJMB2K4scIUSKLSESMmQPvF9Fh8yynYHOd87RIo95S0EcWwokZWYQUYjF0Pk4xcgmEWpeIOA7Uo7piFXEHN9guzq4cuf/yD+yFAMaMcI4oiQgBFTdLgQ+fALFyVvqo5axgeLdmQO6QZX//kd3xHGw4gL2ozGEcQxIBeS0JiIlzVefVm8BIEIYuLRG4KPxIs4ESRghEInE1HEC84UasXQy+Kl4ILHCdgDATi0PQRxbEjACK5eaYR+/cqfmBHPfYJH3bsGZkQiLu05QRwfioG9esYoRd7i5//yp/YU2r0Mt63WYyzLgMUC8iCJU0EW2GtnXEFRiBfHHkusLV6CKxIv4sSQgL12pBq+aE8DIXIHicuCBOyV0+s0tGde+CgaT1wYJGCEhguOtQWsgaQnCUnbIohTQQL2ynG41u9z1BmXMig4AvBp2wRxKkjAXjuBCMLKEwlSR3myAm59JXvIZCIUwCdODgnYa+cqhvS1mT/5hkJBj4ctQ0YlFkErXUKS4v3EGUACRsDHhSvrBf753xBiNVnbO4PcQNrnQsYnoUHqRZwJJGAEx4VkY4hqygXpw79gi6RR4v7kQJkHrIRczAdHqABfqUfiRZwVlIlPPGcso9OQ0BlwsRrY4HPY4Ar44LJQxIs4P0jACIK4WMiFJAjiYiEBIwjiYiEBIwjiYiEBIwjiYiEBIwjiYiEBIwjiYiEBIwjiYiEBIwjiYiEBMwi1xBu8eXPexVcYaGdLEPuBMvENQi/nwbuPf2lbU1i9iO99qugBWrUW/8sZ/42//1F2rmbDRUMIYhUkYIahh5znHeY1zIxotYdSaPVKj7swlgcY9FqolYooVWr48+siVTPh+nGMQkDbJIgdIQEzEnIFMdtP+Pxd29YxR1HtlXBgDXvOmFtppTQSN3/gr+nz8d+jLyVg0zYJYhdIwAyGXIvB8eEz5uyfkwnHGJ3KDUI//YFvyrYdqXYPGfIjiT1AQXyDYQmVUFNmWJ3hz18Qyq01Z/SeuYIrUkRvWMW1XWx/Qy5Hy4EQ+4EEzIAoM6y6tY0p/voYQeYUGiawhFDotZXz+v57DqWxtp8gdoBcSKPSy8Hz7iPmY/pxVAdFhE41P6FcQ8zxAb1MH40bioQRu0ECZmDkSgy2nz5jPqZfRa8UwjFj+tOMazFYbhxoUUoFsSMHF7DxYNK1LnVkWFwBRBJppBMerQHJqCWSkHNFxE7VogwLv7cxBz58nk9pCD4M+bFT3fABWpUWEAjBc9bf+RjyQOZ/xxi0Wuhxt9fhi8Dz6g1H/b6s4goWm+Wwy+8JATsMfVaOO7k4Olk8/8jawxFjoyHrd5vs/tbLrNY4qw4Za2fdDNYUa2rvIvZNnV2bIX6kZoqbZdvaS4jFdPMsaLUy89R9i1a1Y6+Y5p2bt18rs87UK7PYN1PUe2diVnec3Td5g98zhxGw4SO7tvML8udZm+vWIobV6OQC41QrDko7y9xTFe2puLOMNGwd6uzWqt4zErBpyiyq1SV7anlNGjbzLKzdP3eqzvYpYwcQsC7LuvnJOu9WNI4RewiqFxV8WKJyxN5QLF2tsk0XM//xoLu/Cl6nner9IgGbopliVqUemdh1Xdu3DP5au/baaHV/NW7vaRSDYgIf/7IjVUqvCNBeIRDz80cnQj5asuvQuJIS+A/GHP/8EUNi2WK2BPECPamCv5VnEUR8ypPleCIImcST7/icKanjaPfAngWsh1LmTy6yIUQ82q4XsNlsgDWCgEPbQRwQC2KlKqJzOa7/4POHGEqkYcRGjNGofVWf+kNYo7lPWKsDYD32K2ADCRVxTQ7X+kNWAoHNLp7YHksIxVIc83n6X/BzIIdT5bgSlwhv61/UZ85IYHV7H3TQ0fN59tgzuV8BG8uqafhVQmMNiR30BgjziyeOx1WoiMadU9ua4q+PiJ1kqBFxkbQkLmECEwK+1S7UoFYE980UwjexvY3J3a+AcctLtab+i5tEBau8EtsNV/EYxb+OjStdWTLUyIebhrZxNgwg5ZJIJJLI1XpTrscYPamAdCLBj6VRbJ2DDyyjVUwjFvDA5fPxEkIyV8F6p8bfW9OvJ4F0QUJHuVgZnWICAZE/GfHAwX+AesrrT8tG8S+0kPukyZc7i8w+27wWzN8b9WvzUw8XTG4WTOXZY3tIPV3nRv+e+fXvabqYo0p+3nkwZA9BN7ut8/rTzTIvPz+3SF4b1lnK72bxclupV6N+mUXNYNZ4da9d9BNW90IO61kWtJqYN/XI+k+VfcTa5ThzmqwsmFfPdSHte/5eNe2oqeVLtu/DzAwrc7u97Fr7QpopOz8HN8t2lc0TMskggP+e9bW9i+H34E7rAddyP/fJ/tMoROUSaRTihJ8VE7P74yxbbq5VyUbtR/bY3Ub2RmzY77P+voqoUAZF5OJNJ2nqxRQtH0gINqSdYu7rR22jquUcWZnVHWYPM62mn/fyY+t00fMG9Vhf0ehmWSFg9VslncB5tyRxqH3HuNOuiu8sQ35dIiHUfM2eZyKMWDVq4v/TzOL6NYlE8LOoj/p3wa/5BTUd9ZssH7aqr4uX2UvNWbT3+mZfisKBMvGHrHmfYkH3lDU2XVYlUPIKoTYsrtjarrV5vGam2f+3U4kzvQkZD95I4ou/o4WN7cjUr+2T/KLRAwsq52ZenHNU17734AO/quU8XgtR4K+Lb/KtviBgoyqLCwEyXb9YT9T/O3/ubcWq4j8aiy6qHFXP1ZnlZ3BG6PeaF2GUxOOzJcjc3BqFyc78ce6BTUzSxTy12c3b2oEEbBpuEXF1zaf4RZnUixbF/FLmW/eehZ1uFn04fSMyPm12pzXO5+XUQ42aLGXn7qy29dRoljXmalw97xUJ1F3umjndUbZZ1VouYKrlx4+tynDVxcibn7L+Jq7YQkvmKVF06j5sgjZ0r1ous2qzy2aNt2GzvaElqtLNiiGC4ryCLN9d4LXwspGhuEN7P/JsFDIqMQd+UgYXR1FlJYTUAwZDBJhrawZvV2DxIBRwHHZAbCcHz/tFU+9coy4XsDJGexBkdFpjuLSR0620DT/+9jesqSYGmfnEm3EphLc/i379OK9XxT3Xqx5yrnf4+JXX2ioD/1cak/1cgNBJvtAb18nA9f5XfIUf930JCa0brhJ7w9vDkvc3bnD179/xfaO2wuue6AxIp1HpOeALRRCL+WAb91D69AmSp4BWKYYrZebeMQqjCjaLqQ9QDPyAX0RM3plFt5PESdM4FRk7JtwVCCvq7TyDYOSBGD2yW+f8wNbtCnejN/k125L+vV/7VX1e/PfnEA3jFpAWV102bLauu4YHcbeWWWDrxYIUulklDjZ7DU8W3ALXd/QQVI+FX3aLn+iXWVw5T+dTB8dz1IC61c+9IfG53Brc/F5Nrpn/mGj7TsdeBGz0EGbetdVIrwyLBEwLwBs4cH6+DFk1+jweZj6XYP5T/CvIFg+bnQjMsokBRsMtXJsn9itgzz+jrYmzn90/8+f0/ev1Og4fr9Wxhtb5Do7n9Fneq57HSwOwlzIV/1rlNa9EuLg7tve95IG1uLvkcG1qSPrw/C0d5AIeJHIVfPK9hSVR2264ATeVpUoFlX2VWoc7M68BC0KFHHdwNNxZNEqRk016+Axev5Skb3cIC4fN6iNAxLJtiVlHS4aU9MCTyEEqJmB7a0Oitq+BLGJE76aYYHl2U2287Xjh9Xdw4wkhXaqhxl3AhOs9Po7jKPdbeMkzFcjSDTz/+R3f4EVWEitTaQcWYkMopiYBBrZYL7TXkLQJMoPYJQddlpLweBLISUXuTr+Fbdv2rgnZDjRZyrqBGuu/pjNvqF9bubsifjr0wKaX5beKMIqA4CJXbLviFLk52kcbmykL7KxywUQsW+2KX+ayPLlh9tRcAL+d9XLvQHentOlfngXS12GZBdZn9351/8JexGmqWhAf3EKaNjhEPp7uPo76rFkts3K1ybrrWiVDfk1a51j4Yc0vTTmXmfNYi8n1ikyCzd1PjXaWeb3Zp6m2ylHxmdu1990FTEuIVMVnNWoPxoz7KD5Dz4PRY2RzeTHEIZlMt3NuEx1y8Xgx/tVmKbs4PpUvpcPdNrdzarJMvVdvZfLlLMsETFTXsHrfVsTedBE2PeW1aQgx2VhQdfiPfVg9r40ERfzPje+BYB/xL/F9Otnk7aoBNO9Cr8fOAvYUaFw5/xdHm1hvLseoec9uH9Tbr1eIF9MsiL0ySWg18wZ6RqaX4Cn+xcWjrO2bYqjVP+vtfH3pV+9Ytj4Rta4m0pvHfpYLmNogxTH7VKOcRZsVd5Flq4gqv+/lvmYlbkBbn2NLWF8bvHvbhNip+NeyzpSV9KvsLlufXKv4kRGfucB6XoedBUzt/XGzoJ+7XPHlQd9hPaUOBXlxRkY9wMgrw1lZAQZmarbWc0henUPP7zKbmXXGahi175RzX28IkR6aMLMFWreCyYyswUW9smL0iai3XKDKc4f73EoSrrl3iWU75ZYtKGark/mjqYXTMetW3Xbu4KaMWP1W/39OtmzQwaboBpB58y9FYUcBU5Mgg4rvPWTVWyczaeMfy49t1u93uU+fZ7deceGia3eFjaj31KxjzRG7I2IRSoUUPY6HGke4G5P4V52174PMHUyxh3KZ5cW6CmYxHrK7puVSZXHlWjdo7N08808lX08X8+1szviQ1bNhZjVZmTeeVc7xIRtnXquJWcNZVl92c0ddVr3zK+9bFIOdHupl5+7n5GMmrvV26RDr8chFa9FwM7Xwa5u7D5tRjauftZEFOcVuAjaqs/zd9E3ljNrs8SHLbvVhBbf8y+Rits7p6cMq9Hha9+F2w4xpYm30MXiiIp7t3PiTRvrksoiBzs0m6/Y3nCBg6/jXpqipQOo5rkjb4N9BXAziXpGuMmqXWVyJ80039Ek8arNhUefEbvEvwe5B/L1RZ9fKr51+MW2Wcm5/YcRL6DlGvBxghoC9sTL/a330+NfKfK0joo6PXPPahvda770eCJwImHuDa+rfh7kbfCaNSo9/7ZB8vOcppXdBhiwSTNwRBGx8q/IJJV96RU4LsTlirUgfPopxQ+Yoqp0iQue6NuOq/K+1EdMfKxeM0BqT7x2HHloSr/DONa/N4oKL+3Lo9LT5wFzwLZiX8mU6yGU6CPjOo1GNGzVl+Jo55Nt+OJImZGeANjOCNcry+Thzu2/Z47laBhfM+aZLzLMq/2t99PjXloOiD4QaMlkzIK6t6jPdg6qHXNYdaiSGi1nPKNapx7/me3bX54wETEUd8kETIB6Cs06XmEPMRqFW8HB5x9pwtPjXpnBXXum9DLP7FybLGrXzzG8GM/Pzf6Z1T5NSrg61iB5b71mFC3aPfwnOTsCIA3FO6RKjMotb/Sy/MPDRZHdObWD2s2LeOnajT/+ySazoeIxYt3zL/HYrs7qDLJUvs3JZK3l1Tj2zPcxS1cW9rcNqXBXnpR0x/PPvw8xuP7NYp55xsEtGP4cE7DUw1eN4DukS7TsuKFtnn69ATDCo/LIHmTqy5oUk0nNDGdwsUo+4eClpSOsNPh+171lUJNqa3Cyer7KmmKNLzAOWv+UC6Gbh7H5Xw94cER5SwwFqypXIHxW5cbt7AiRgRmf4yK41V+ws0iW06ZXXHXq2MXq2uPWW1Udddi+SSE3LkkiNhZjCWUxemE+lWJ4/VptbZPcfBD3DwMpu66pFaIZJGaO6KyRghmYqXeIcLJCnxNlDZo6LBTFSLOz3Mrc/yG6z1RfnYieOw5Bbiamwn3ndfha8zbLqnr6UI8/IShwPkS7hwAdl9ls3su0WkpvPnrI3BpUEfD/9gW9iI1oFm0xrShBbc0Z5YMQ+6eQCT+KVqksnE69xr4Z0yIYfdPESc3bdkHgR+4EEzIDItRh8aqYqN3YkZHxHzlQdD9Cq5BDzXOHtuw/47Yu6BKqCNYkbWoyd2BPkQhqNqQU63Nk2WgcyvcbyALK+cnSjg0FPQq3RQkNq4Ovf6pydi7Cn2uhlTujLEoaCBMxIyDXEHB+geI5niRf5fgM3NDyM2BPkQhoGsabAOYsXx5tAhMSL2CNkgRmETiGAwKeOtnWehAo9FCM7jcomiGeQgBEEcbGQC0kQxMVCAkYQxMVCAkYQxMVCAkYQxMVCAkYQxMVCAkYQxMVCAkYQxMVCAvaaEIOspQ5kbfPgyC3UpB6UIZMEcQBIwF4NAxQCP+DH/7xHqDDQ9h2GsdxBLReD618/4kOywv8zQRwGErBXgwUenxtOfwqZQy22KSVhs7kQuimgc0VDhojDQ0OJiMPQy8H17iO+urPotpLbL1xKEC9AFhhBEBcLCdgrQEw+OBjIFEwnDAcJmKHpoBhxwZesQPrkw9s3PhR62iGCMAAUAzMsMmqJAEoRiYuYhWtZBq73v+Jr/BGsOJmUvldK4lNt+8QK300BN74FAXuKgRFHgATMoIxrMTgKEXQqMYglPcalEN7+/AXm2zrknE99EWc8aEFqbJurdQVHIATPojVDSMCII0ACZlBaxSQ6gRximnLUEm/w4Q8g/DBCJXaEFAcSMOIIUAzMoHgSE/HicgapJh79iAQoP4swDiRgrwGx5JlYmtHug48W1SAMBAnYK2DcqCnrRJojEcyuyCjdXOHNmzdbl0CRBgoRp4ME7BUg1b4oj6HQJHivEyiMIcKg2xYpQSYdcTpIwAzPJP4V8ig7jsOgAyXlTB5QAi1xMEjAjI4e/3JGEDi0sdQrIGSzwcaL5d+/47vY9+03vLeo+2yhIs1MQewVSqMwOMvyvwjCCJAFZnCkihr/iiyIfxHEpUMCZiS4C+cTvYO2JFpie1BE5jN/dGeRDokdBGEsSMAMxEAq4f/4o8njgUVucNH6BX9a46hKybn0CYIwAhQDMxQDSLk0MpUO5CsHArE00gkuZtpRgjAaJGAEQVws5EISBHGxkIARBHGxkIARBHGxkIARBHGxkIARBHGhAP8PlxLpw2QY5CwAAAAASUVORK5CYII=;" parent="1" vertex="1">
          <mxGeometry x="207.54000000000008" y="562.9399999999999" width="141.82" height="54.11" as="geometry" />
        </mxCell>
        <mxCell id="mgKCpu8R8uO8z9F1_llr-8" value="" style="shape=image;verticalLabelPosition=bottom;labelBackgroundColor=default;verticalAlign=top;aspect=fixed;imageAspect=0;image=data:image/png,iVBORw0KGgoAAAANSUhEUgAAAKwAAAA/CAYAAAB9wyM1AAAAAXNSR0IArs4c6QAAAARnQU1BAACxjwv8YQUAAAAJcEhZcwAADsMAAA7DAcdvqGQAAAvjSURBVHhe7Zw/kOJGFsa/u2QYJ3ARXJWrhgy2ylVwETgaHA0XwUbgCC4CR0OVA9jEtdmwEUQeHA0XoY3QRuAINkIXoY1gI3AkOYIJbOToXQvEDn8kECzDjBb9qqZ2u8WDVvPx+nW3+v2NGLCxsQh/1/61sbEEtmBtLIUtWBtLYQvWxlLYgrWxFLZgbSyFLVgbS3Fygh0LBSSLolZ6xox5ZNMcZK1oM+O0BNsvI1rwolgIahWLKBjyaUQiSRQqFRSSUSTLAoRyEHFO0V5zRFxxFJM8IskmxlrV46Ng3G+Db/cxNn3LJm3GfQj9A/SjutN1GvToxheiW0krLjGiRspNoZseTbQald6NjwAflQZaxdGZUCNxQYn6SCs/IlKNYu4Q3XQnNJl0qXTpo6u7nnbRgK02Exr1WlQrJcjHpOY7QEeejGAntRgh0dBKK3Qy5HTnqasVPzEoke8sQx2t+CT08nRxodO2jUhUi8Wopvvj1EOiu0vQRX5BbOq945LuDN/DjA0TrCTRaFKnxIEEeyIhgYxq+R0S6ahWXkbkedxHwtALFBzxOMLa/58EfxY5RxmVtlY2hQK534dsdgQecii/BwuH/FoFwxtG5Ow9ytxQq1jBlI0DLo8HLodDK38+X4RgFRYftZno+KW/Jvrz4E9ugvvfFeIRrazH29corsZY3izaVX2RHw8vwqzdVU7Qyo9AX8AH+BBc0B7ggd8LfBD6WnmFfWwOgMUFK4OLe3DuT6PClZF9+RIvs0VNsOLDDFts4707CL/BDz1YqCLh/IBXL87h8ATZxKyC9lS8zEMczjnsjTccxl+CAANf99kMmTc2ROzrfu4+NofAwoIdM7H+E1lHFSNZAMe1ITdYpPS7B9FKFdVqARHX7JXDvshm3WxomhXXcUXByRK6jVvkmJH45gd898KDZHN5fi4LvCZkfbZdX0UROaQjXniilY1fsIcNq1CHeK18eMy3+YF9bD4fywpWaWaRfneFSiX6IERvkA1S7Itd+2ZNdK7Dg2A0i6IqfOrhxnePt8zzPghpiDbHQzAMDLddX8cRTCLp+Q1jr58N/Fv4a2ywvCWimk4jvfSXQ3U4RDW3Wp9G1QJL0BvRJl8WY0K1KxCuakvLUJPaFQFsdrxYyRiUfARfidbnqD26Sd3q1G+y2QGpTtdXAQpcJui6VKN6vc7+WtT71L4u5d2gRH2lwas0Euy+EmSwxqHDgEq+HZbjpu+/+nr1PVgfG62s7GTTOPVVAhkyc32+aJhFmXMU8NyvOEtkEV+JO73M8+rCQommoO8Rh/0hnOz9p55P5lHM5ZDjDOI2vetyFRFvEd6ywEJoNqPOJRGPx9lf5CGWHrbB/x5CJOzAuM9eUyigYPQZvjCW5jeHxB9mI9NHLM+V+hA/qh9r8Kn72BwAiwrWC7+qQWVBbOJrFNoJ8CxEWJsneb1wfxRYdy6jMCG9/9iEsDrW9svI8XFwr9UFrSHK2TYiaQ+a378GP3vFAvrXm7n/ABUeOaOZHkMRmvjoi8MvMLELTJDyG7zhxLWhfxqDB73bw4Z98SZRuASE9kIP9dto4xKF5PxT++BYiJGbL1mZsllh8fvaF83TWg91l8V3SaWuRL16igKBa2oYbgg1KMWGr5uVjZtOxkmBVIpCgRTddQckSQPq3qnvlaL6fPF7wuq6I+rmL6YhyNpH6F5Xh0Y3JW7VEGD1r0UDLQJgc0TCmY8yNWkptFlmFv5cGq/g67BjSKDSu6NLd4D1EWvJhIVKATfFFnceWH9fMbkgVn9o6zYbkqhbK9F1IkRO1dYZosR1iWrsO9uXvQU7GY02dPKxmO+kaMUNtDJnFFrZl5W6PU1gsy3Eer1B3YHefbUoc7Yp1ly9zgQTuKDFTaB1tPi11qO7mJOcqYZBf6rxn9GWshF7CHbKhPVJY/qjeoizt7GPzf7sJ1jplkLsFxNbnd08Z9Rtw523ODU6GTo7SzEPXqNEpjWtGvUa1Ohp/lbnunR3SU42+TDsoek25kyI08mi74Z6rC6WX27hiF1zG4rZGKnbXR8NvgD2EmyLDaVqNAEmgI1O5JnRuwnsOLRqqM8ahG7oNhWj0vSGZ/voQIb5Vr3rKup+vpsuUvVPIcAin0SqFjrX5AzkqcTsbxe94oSFMr7EhlDn9Ng9L4FcQSTrQtFfwLdvfgPzsuCTxhOL54W6M5aGXGyyyZBWZRZFXQd1Lex8KeCSOXg41h/T4up1FQWyyGb/5TZkh7ptqa4Ye1j/pRF2KRiz2ZVrbrBmP0YznUS/sEdbv2Smst2BViZA01FrwiY9FvSyasw1MhP0bkO6oxgb/h8vKGLtfLw3tyy7eVh1bTHrAM8np7tL/YIXL97ISDTG4KJW8bKHYSwKGPvD8J7WbT85OwlWyIbBZwUU5+vwCof4+fd45yth0M9tXSdUxrLpJ9kd6t6/LQabFcwLVvWuSYBrp1kU9sAuXlYWeQhmH+PxhhEPLn7SA4qi4I8//tBKNlbkq6++wvn5uVYyj2nBClk/quk+KqtPM+/oZQ/Bzz//jJ9++kkr2ViRH3/8Ea9evdJK5jEnWAPvOkdkXvZfJxrL2hwXU4IVC2FU4sK6d50z5hD9x/f4dYuXFatplM0e9YjkmEc3eGjF5mTZLlhVjJEhik197zpHLPjx7/8qyLQUVDYdRXkCarUa/vzzT630vPj6669xdXWllWy2sVWws0nVb1rJBKFbSEJ2o7iPjRov3d/fa6XnxTfffINcLqeVbLZhetJlY/McsPghxD1RhuDTETaRLKBSKSAZTaIsCCgH43iKJC+PiTIeQmw2IQ7Hpk9hmbWRhYWDnsdC9bAnxahBKTVbydKzcGpWGHz+kZhnxYg6+RC5E3WSJhOSGhny+a6ptfFBmu02k9GAuo1bug652ci8y7Gdw3ByglUf2navPMKnop7hOss8aY6XzXTyFMjv0D71CbKV823qA+POTfdowmYykkiSRtRTz7w9gWBPLCQQwfP3iIR1c7wgHn/SHC+bYcP0BzZEm6VZ+QX3gQjCC8viwegl7n+poKmVVzFjo26Zezyu9WNIR+IkY9i3r4tYTR/gzbbx5EleDsZQTcwC+JePj0/zG0BAX3d7fB+b43Nigg2iUE3A+eEVXpw74AlGUai0Z+J1PJ3XODyz06v6rJ50nbOPzfE5OQ/rinKQpS4atzlEXCLe/PAdXniSWE7yMka/yUPcMAV+rCwvh8J8yx7Yx+bYnGRIMM2flS2Ca8ug3g1892+Z512QkdJHk2Oe1zBkfNwsL3KzuJaxJV1k47WgV988/tLSU6JNvr58ejeUWjowNWeWreSzs5IcKsuLEWqmFaMsLGvM7mnt9brZWubsZjPNjGOvEjwestCEfpIXNtkYOhENz/zeWKiimMui2DZwr8fI8vLZaIlGVrIIzjIOBqcpMdfZx+YJ0IT7hfOQi2t13bxXCpCbeZVpvXpKNXHHnCXzKvMTrUswLxS7pk73hnzMu9S1WnWtcttp3Pkp2Vb9mlJ3A2qkWHtiOok5jNjJwzLW1lRZH8SW11RHLTbqpErUmb/GhM2cuYed98GxOBHBdijjDLAvJ0SB1B11BxJJgy7dpdgQnqrTJ6mNutQZjKZf0oXO5sLjZ3nZwK6CZa1rZS6mu1ZqO0fsR+gO5Kmz8AvpXKu7VYsZcbbbTHotus2n6OqC3Q/zdxdXKcrfHieJhsqJCFai7jzpxWREvRYTU6NLA71jqdMkIetpjR54zCwvG9hZsDMmox7z6nVqdM3/UPaxORYntzW7DTVjC0IlGnTyzGvOfK/UqVNn7obZsPlYWV42wkTU1cvIcWKc5LLWNtxspsQVZaSTs12eYvQlvo1XPi0fOYJ+DHMcwrnZk+qeNIeKkoY/zWOoM7GbZymMsLdzeP1wOsZovm4jmt3hRIXLj6B9ptx+HlYPZZaSZWHnS0QhKSDHaQ+mHzzLi41ZbMGaQcghLubAZ5/L2s7pYgt2KwqGYh+uYHCa7cbmabEFa2Mp7EmXjaWwBWtjKWzB2lgKW7A2lsIWrI2lsAVrYylswdpYCluwNpbCFqyNhQD+DwnNMmbRHAzjAAAAAElFTkSuQmCC;" parent="1" vertex="1">
          <mxGeometry x="196.5400000000001" y="700" width="163.81" height="60" as="geometry" />
        </mxCell>
        <mxCell id="mgKCpu8R8uO8z9F1_llr-7" value="" style="endArrow=classic;html=1;rounded=0;exitX=0.5;exitY=1;exitDx=0;exitDy=0;entryX=0.5;entryY=0;entryDx=0;entryDy=0;" parent="1" source="xC8ps1dQcY_S_Sjtmnwa-13" target="xC8ps1dQcY_S_Sjtmnwa-18" edge="1">
          <mxGeometry width="50" height="50" relative="1" as="geometry">
            <mxPoint x="-158.44999999999993" y="820" as="sourcePoint" />
            <mxPoint x="-158.44999999999993" y="890" as="targetPoint" />
          </mxGeometry>
        </mxCell>
        <mxCell id="mgKCpu8R8uO8z9F1_llr-9" value="" style="shape=image;verticalLabelPosition=bottom;labelBackgroundColor=default;verticalAlign=top;aspect=fixed;imageAspect=0;image=data:image/png,iVBORw0KGgoAAAANSUhEUgAAAGcAAAAiCAYAAABC1McmAAAAAXNSR0IArs4c6QAAAARnQU1BAACxjwv8YQUAAAAJcEhZcwAADsMAAA7DAcdvqGQAAANOSURBVGhD7ZktcOJAFMf/PdPU5VTj4BQ5VarAgWtcOUVOFQfuOEUkkipw4MCBgypwjSuuOOLgFHHEEfduA8uVoR985IBMZ38zQN4GJsv+3ttskjNiQBBIvvBPQQARcgKMkBNghJwAI+QEGCEnwAg5AUbIOQSuA8fl2z74tHLs/gA23z42Zl7BV9WAxeO98e4QfBZm0xE9d6v0K3ZJQJq6vP2oTKqUYMPqDe1tc8Yb9+OTVY4EJaojp8s8Pj5msYb4UxO3bPvBKPqqnk8lR5IVKIrMFJ0Iu4bi2IAR11EqhIA/9zBa+598fNz4dGEPTPTHrw8uqUlo6umyd1xR8e13FF1qQeNtx6Cfi6OT66MUZYHbQuriJx4iZYysPMKLr+zEnnIc9HQVGZtJCEuweiYkLfmvA4peQklTeLQJF47tsPdtkCBvURknkWM3kMxJ6HR0LNPSMsL4fm8j3XXQ0nav573kjCsaiuEWGimvGz3oYRPGuAQvYRa4sMwOTMuBrGpIJcMfDKiNQaePMY82EY6nEN3g/RRy+jkVjYyFWpw3ePisnr3kuK4LSeLD3c9BYrLcVmoR86qqaBZ6GRlWSUV0XINbS/L9h2dbOeNOHsWOw6OPUKGXDLw7GXhVowMtM4P1r/iqHk+OH56y53RVHvGIMSxQCLfUXq4iR2WK4IbqUx4fgVE5whLueEvpp2yEsk88WGfapBtvaR0p08oobYXPJ6EDGMo1SxxCg6eo29Jw8VNGm2XtopY60M9+gKUxy5x5wxoDNh1UYPJoE8l8A5mX+fNNjjqtOex/plzU3qiaJQNWPdf7VM9c0b7MqyRB9QmPGcusbfOYWP6m2WHSLw0H53UfDsdzIULp5oQmkw9ewzLFvOqJVWllqDbiS86ofEW4LNAzjz1OKWc2fKRq4Y5uQosr9NDNHRWqjzT0d6H+PrMmsYvN+bG2e51T9pH/dgv8Vc5sStP1P95Os06syJnUKbFjpwQL/N0hkGTI61NoPIkYWxjby7uOtgWLnX201SWmYDu4pP/KsByjyF2XVdWEmukQJepDvkewCz5Xa+/jOvbimQarLuVVeQm24WByBP4RT0IDjJATYIScACPkBBghJ8AIOQFGyAkwQk5gAf4CgXP7bKy+Oc4AAAAASUVORK5CYII=;" parent="1" vertex="1">
          <mxGeometry x="226.95000000000007" y="756" width="103" height="34" as="geometry" />
        </mxCell>
        <mxCell id="_i0A8njc_aDw7vqNazZR-4" value="" style="endArrow=classic;html=1;rounded=0;exitX=0.5;exitY=1;exitDx=0;exitDy=0;entryX=0.5;entryY=0;entryDx=0;entryDy=0;" parent="1" source="xC8ps1dQcY_S_Sjtmnwa-3" target="mgKCpu8R8uO8z9F1_llr-4" edge="1">
          <mxGeometry width="50" height="50" relative="1" as="geometry">
            <mxPoint x="50" y="770" as="sourcePoint" />
            <mxPoint x="100" y="720" as="targetPoint" />
          </mxGeometry>
        </mxCell>
        <mxCell id="_i0A8njc_aDw7vqNazZR-5" value="" style="endArrow=classic;html=1;rounded=0;exitX=0.5;exitY=1;exitDx=0;exitDy=0;entryX=0.5;entryY=0;entryDx=0;entryDy=0;" parent="1" source="xC8ps1dQcY_S_Sjtmnwa-18" target="xC8ps1dQcY_S_Sjtmnwa-4" edge="1">
          <mxGeometry width="50" height="50" relative="1" as="geometry">
            <mxPoint x="50" y="870" as="sourcePoint" />
            <mxPoint x="100" y="820" as="targetPoint" />
          </mxGeometry>
        </mxCell>
        <mxCell id="KOfnYtluvMMYCkwV_I0v-3" value="" style="rounded=0;whiteSpace=wrap;html=1;dashed=1;fillColor=#f8cecc;strokeColor=#b85450;" parent="1" vertex="1">
          <mxGeometry x="-76" y="1180" width="490" height="200" as="geometry" />
        </mxCell>
        <mxCell id="KOfnYtluvMMYCkwV_I0v-2" value="&lt;b&gt;&lt;font style=&quot;font-size: 17px;&quot;&gt;Cải tiến 1&lt;/font&gt;&lt;/b&gt;" style="text;html=1;align=center;verticalAlign=middle;whiteSpace=wrap;rounded=0;" parent="1" vertex="1">
          <mxGeometry x="60" y="660" width="90" height="30" as="geometry" />
        </mxCell>
        <mxCell id="xC8ps1dQcY_S_Sjtmnwa-19" value="" style="rounded=0;whiteSpace=wrap;html=1;" parent="1" vertex="1">
          <mxGeometry x="-60" y="1206.07" width="170" height="120" as="geometry" />
        </mxCell>
        <mxCell id="mgKCpu8R8uO8z9F1_llr-13" value="" style="rounded=0;whiteSpace=wrap;html=1;" parent="1" vertex="1">
          <mxGeometry x="240" y="1226.07" width="160" height="80" as="geometry" />
        </mxCell>
        <mxCell id="mgKCpu8R8uO8z9F1_llr-10" value="" style="shape=image;verticalLabelPosition=bottom;labelBackgroundColor=default;verticalAlign=top;aspect=fixed;imageAspect=0;image=data:image/png,iVBORw0KGgoAAAANSUhEUgAAAKoAAABZCAYAAACucL81AAAAAXNSR0IArs4c6QAAAARnQU1BAACxjwv8YQUAAAAJcEhZcwAADsMAAA7DAcdvqGQAAA4WSURBVHhe7Z0/cCJXEsY/XwJXDsS5yiUcSQ5csBFc4IKLhCPYCC4CR3CJ4SJhJ+BMVQ7AEVw5EBsxGWRM4gJHwpHGETgCJ4ZLzKwdwEXgqK/fMEgIAQIJrRjp/aq0y/xhpIGPft39uh/vEQOJZM/5i/m/RLLXSKFKLIEUqsQSSKFKLIEUqsQSSKFKLIEUqsQSSKFKLIEUqsQSSKFKLIEUqsQSSKFKLIEU6ktg1EQ6lkKpqqKUCsHtDEHRzWMWQVZPPXsmqEacaKZHKAXEZhUhr45SN43j6QmWQAr1BaClHPhHI4BCPo1QxA/nBHA47OZRayCH/heAv6Rj2DyDe6Qg9Fc38v2ZSPuopvNojszNPUZa1GdOvxhA3t9EyT/dVmMOqAkdSmgq1smIVepwYN/tq7Soz5oJtKYG9ayItq6jq8RQRAlZIVIOsPKxAALpJixgUKVFfe5MRhPYHaxLfYQJP3Cavmlf5SFf0/Av9l177f0PrKRFfebYDWHa4XA6r0QqOI4kOMpqIJhwY9Tn6GrPkUJ9sXTR/PEYk0YejdG+e6hy6H/WfPfdd/jtt9/MrfV89dVX+PDDD82t/UMK9YkYaQpKqoauzsOu8B2PnWBXkn3JPnS4EUulEHI/zNKVy2W8ffvW3FrPF198gQ8++MDc2j+kUJ+Sbh7uV1/DWR6gmXCaOzkAapcQCvwbk7MOtLTb3PuykT7qE6JzMPMLXAj5r0UqsHtTaJTC+OnLCIp9c+cLRwr1CWk3fgRsAQSWGE17IIITlrGiSqUKpFCfDA2qyv9FQjAnjW7isBuzRT9r3en2GiZ6Gw2lhGxRQfNWqmkErZRGIpG4+kkpbUzEZEAxherdl98PhI8qeQJ6BXLxy39SHpg7FujkjOOHmZa5YxkDqsWP6DBao6GxfUmnriT/e824dU6F+pDG9Sh5Cj1z75TxkPebj/cdaVGfCL2pLvVPZ0z9VyAQ8E53MLqmotm9tphayo1/NmNoVCNGxsDAfjNTIPzddMiBptKA2z37XV0o6QgHbCV+ZA2kUJ+Idf6pmKNvVsXxJFIhcxf6vE+FJtJZAl1B9s3/4In4obMPoSp5RCIKAo3iEleC3YyGFyHvVMQTrYnRsRP9fhezy+09pmWVvFMuKWkDgYfspbQydLTOLRDwUA4c0lrPYI7x8OYgf5m00dFpjS5bU6dh35EW9Snoa2j+CZyEloVRXRQT32IUrUOd5VZ1Ffl0GulbkY8X3g3TrNM5/xl9tNuAs62gOOdK7DWmYCXvkEH5hK2hi3Idc8eM4SVlfDY6jM+CI0GPCuFTtnwiuIrSlQ0enJPv1jU6VI6eEsdOz44nEuqAKvEk1da9oMMaJeMVPvMZMWjReSZKvgMe9nFE0fMa1Wo13henePiEPMFTKi8OxeMetXhfK3NECFbmBMyyLPjoMFymzoDPqeUomSzQ5TMUqWAHQq2zoOpbpDmG7F65KHlx9zOG7Ie5ovUbb87L5MLwaaO1Ja/ZeEiDwYAWXNBnx8N9VE2FHvBu3MowUlNIOUooBRafIfp3ElDYd5rhCLEPBT5ftUIN+iOiVaEgjkRARSzVNHeaiIIWp1PMDzxrHizUvtaH27s8F3ibLgcFbaSzom93gb6Ks/9Uod3w7e0IncWgpfOY0++LxM5RUz9dhT+95LV7CZiW9Z4MqBy+OROylosk2VwFDg9uM64E2W+LsiOxCAcTLhu7CubmS4WH+Oc+vK9jC4s6Qb9ZQr7YwPV0chsNBGDMnehNFIvsBhj7l6NVFTgigRv9OWK2RVXZmpZ+AA6FYeXt9vxVjuFnI6JUNXP7hcJD/HMf3texsVC7xRRUZwpe7TXcaVM0LLIJC0+8fnrjDF9+mUV1Vuwz6qKhtueE24em/QnvQuLP4fbD7+ejPwKudBYR3ghcTfVNOeZ9f2oaX2EVE4x0HfpGPyM+W2I1NiucnlQRiQFV1Yuz41eoxjro59lnKoY4KGogb5jUNrLOBJwa+6BsMicah0FVJ7LFGKbSbCDx3mtM6oTq1bSgSb8I98dZBC4nV/3nN2jE8F7EgctJaXmlEX8c2uo6Id/k2B/BKrf6999/xx9//GFuSXbF+++/j+Pj+/e6bljhzxZrYoejm4Xz71UkOn3k3TqUyBnc6kw8fRQDefjZPVgupgZiLFQsEaquBPDRv5x8qIpFDRsIoRpPXXF8h4g+ozdv3phbkl3x6aefGq0x90YIdVPE/DCugqE6RcOV6/zp4JyCRsQzpMtyjk6TObq4kQDl8/nXRW9HS1SPgnBSXp3cN+a1lwVakpfCFj1TbDG9HyPrv8REjM9t9ieb7LeKcR4jNBIJ6HkVsXYCCT2PWOMjZL0ddLMzn7TLVvgV2sVFi6ohZf8HmvkeuuJabQVVewKxeVdWWNS0H72VK9C1oSSKWMgwriSQVpC4rp6TWAFDrhsxpkpYVPxM7VqvELyq3Onw47g5wTxsXVJvWKEwjhYqe/j5QZBroXhXFBB7YKOkkePqUO7kdrqrV3CtrjSSPCEdKsejlCvXqJILk+/QRacb5yq3Y7s86vCCTj1HFMzUKBcMU6VTp1wySYWFCebBuY9dhBzfxk16Bc8SwfWo4DmgeE0UVISpsPgkU+BrS94kT0Inc0S+89n70qKMi92zR8r13i/hP65ROHjOlnPZXzWg8gnIx5bzMhOlq/sQiIofW5Ju5+7HNBysaosQvq3v5nUke4FRBXbgo9PzOrUG47ma1x5VThdjlIdxP6FeJim80sIJoR5S/DxH4fhiQcmY46IDClY2v4NhJUiHWxW97CHjHtXiHrLBQzPPZzy4oPN4mMK+I4It/miW6LEZDzt0UcnQyQEoXLm+iV33Y91LqPP+6XLYQq6a7xvWKHq04bTruE5xMZzs8JP5JIyHPLqwnw0WpMiKFMIUjNeoJ16iMb/R9Y71KsTq0RvuWCfnmjYPsnuYi56Qj+9vl4PgvYQ6aLUe9EcMLzP8Rt1Vvjekejy4xGe1JkYKjofJE4+PMs+gaLTFHzybJ0n13oB6FxkKn2SMob5Xy1E5EyZ4ltd03Jf7Df074O6hga3yLseOJ6VDOZcoll6S9bAo0/dPxBYDGtx4o4TrZ6Nggf1WY8jYDU/WM2W/czlu+/Mpwpi00RS9z8wvbas0KK9n+v7dXndV5MsfYzlLuUjaEkbVEP72+Q/G44PDwzs+UKzDt2/xP/OxwWEGLT0/rSoTGFPAOnIZ4OtvHaiNVUQs/CH89ddfN66H+OSTT3aySqAU6lK6KHpf4cufAd/5AFrq7sLwyaiPrlpEKvsf/PQWSF7Q9HudmEbsPbzWyxg0nEg7XkNLT4t6HoN3sZzlN998g++//97cWk8ul8Nnn31mbj0AIVTJEoYVCvLLs7RbdB3jHpXDBwQOFqdMaxxmEfK0A/U6TUWDCkU9mc2LzzfBXA5ocZJELO8j0kg+C0aoUqhrEM2FB0KsS2bZ1tOizNG0tXlc4QgYYbruyxPNjSzkgzAVaucU93jodJeZcWZlOzYz/Xtc1x8UiyCFupYx1eMsKharLbrdpMOwI2Zr+ArDZR2iZrS8cjbuYRipMNuKXPWgTCd8P4sLpu070ke9kzayx3/Ht/+1IVrTUY1cLUe2p0yr0d5EaqBqxNw3h/gu1L9+jh+idT5+R3XvhCN4tYl2HzgOxRDxzt+7WM7yDCXtukPYHkijmNi8I3krDLlK1tMRFV7CX+UhfN9z9TtZzlLMnp3QoYddHsPkD6kcPKH5S65eznLMz01SZcdusBTqhhiVX0KsK7po94V1/qlgenyhgH1wSbWLzpUbMj0nSNclGbeFOkP429GFQoXHWHdVCnVjhlSL2ow32bVVGuDdstY/ZfmIkklxfL6CrVc5pXjugu9QMFtp8JwuajWqVc4pGY7eKuWcwucezAu4Q+XTMJ2wJd5wkcGNkULdhmGdomLdKE9hyyzAu2IHy1markNwrhJqHfPLWY4v2R3gYf/oYPfVYE82hWpJ9C669ihqzbTZWbsFt9rHt2GERl65e7WYbZez5L9GzaeRTlf56DyH8G44KTC/nKXdn4K/qwCJCBzd3S7DJIW6KaMGYv4iAqqC+wT+k24D1WZ3y29y7rKQ8siGvHj9dePOdvCVy62PNGT9XuS9NfQ50p/9+f1iCs1AAs7G5zgTX3whOPYiYHuL/o1fNkIzHUPxzjKFR1x31bSskrV0qOABedg33XWQsBFmF+7KrrH7LGfJd9JrtWhouAPzgZPwcOJ06MvQRW9AnYsynUZPqbbDSqj7IIV6J9OZpIOrbx7ZkKu1ola1j2/BXUJ9ABeiBZ7v7ZYM92w5S5nwv4Nu0YtXSgwdLYvNazl0lPwRQNWQuNU+foxmNoDs2t5uJ1KKisTMETYX4KhRFUtS+A9ATA4EMFF1hJQsnNUS9natQEOukqUYc/0HbMm2M6XUyXkIwbJhgVe3j2/Bo1lUkV7yUe48TuE9L1SRQl2FUT3lodx0amYjxr06ZYKHYoSiYPla3Yvt42L+Xwyrq38WEuaPOPSLD9bK/rY9Qg79SzHrUSdBxFd8Ydk8E5EWav+Ct1fV00FUhg3EjPBahxL4CKVID0U9i3aah++++L4o48QV2HEcCOFqav3Rhn7rIIW6hEm/iUb7AXlAuxuBkNtMAwmhetGMpTHSvFCU6/TQ3UzQbTbQrmbx+Zs+grkqUiE/Ihuv8P18kEJ9J0wwYt07XvJKvA9EClViCeTMlMQSSKFKLIEUqsQSSKFKLIEUqsQSSKFKLIEUqsQSSKFKLIEUqsQSSKFKLIEUqsQSSKFKLIEUqsQSSKFKLIEUqsQCAP8HEucvMlzZSK4AAAAASUVORK5CYII=;" parent="1" vertex="1">
          <mxGeometry x="249.07" y="1231.07" width="137.79" height="72.14" as="geometry" />
        </mxCell>
        <mxCell id="mgKCpu8R8uO8z9F1_llr-16" value="" style="endArrow=classic;html=1;rounded=0;exitX=1;exitY=0.5;exitDx=0;exitDy=0;entryX=0;entryY=0.5;entryDx=0;entryDy=0;" parent="1" source="xC8ps1dQcY_S_Sjtmnwa-19" target="mgKCpu8R8uO8z9F1_llr-13" edge="1">
          <mxGeometry width="50" height="50" relative="1" as="geometry">
            <mxPoint x="40" y="1300" as="sourcePoint" />
            <mxPoint x="90" y="1250" as="targetPoint" />
          </mxGeometry>
        </mxCell>
        <mxCell id="mgKCpu8R8uO8z9F1_llr-17" value="" style="shape=image;verticalLabelPosition=bottom;labelBackgroundColor=default;verticalAlign=top;aspect=fixed;imageAspect=0;image=data:image/png,iVBORw0KGgoAAAANSUhEUgAAAGoAAAA9CAYAAABFqvzYAAAAAXNSR0IArs4c6QAAAARnQU1BAACxjwv8YQUAAAAJcEhZcwAADsMAAA7DAcdvqGQAAAR8SURBVHhe7ZordONGFIb/BGlJjhdFS1IXrVjFVkXVolWYWFRUQZ0gsWpZ2IrVrGIV67BokQXFqqIoKFoUsVVDrJJkFqnjePJ20vgcy/bE85H4jnMM8uXOfVgbLQOSlWeT/5SsOFKUIEhRgiBFCYIUJQhSlCBIUYIgRQmCFCUIUpQgSFGCIEUJwhotZSnqIkNeUR7foGgmLK3Ho9VkTUQ1SB0Nbs2E9BWUaQbFMtHn76pOiNBSebSijEW9dE5/+9D+cjji0bDd++7X9ohH14xO2uHhUfuVh7Mxaoef/nj4mXNkLWqU6iWIbX615QkSw4A+ia6hZQqSlSz3ZqFEEoYILB27H1NU/LQL1u6Lw9xT4GklCv/q4psDqYONXeCwJbD50bxZs66vQJJ8g67dltQgj0P4XohstnRaKOslqiQg//wE89a9R1MfA7gwm4/wopKfrh5rdfVVAx3fhxaO6vC6RjVFjqZfwX8dQDuqEI7fqFnm5U9UHEWFbhpgDeSEBVx9a9H1XXMxakcX/PUtvv7+rsXbT+0Jj2dmuMf+2ffaQx52wXpdfUoPvassuKZGSv7GO89BEziIan68YsgV0iXb0BSCsHbhzDT3UpRZApIU7HWCKGStf9GNaflc3yUUDev4eg/TbWXoTBQtM6TllH5XNWAbK76uWUE6EVUODBhxD7auosnZxK5Z0PlioGf6CN0+qjQD1W2wX5kKbWo0D/enU1F66pTa87KYuyiaurCLAEmgQUGFgeZBLVI4t/+QNMfAI1CDARyNn92jLhI81SHfoc+y9DHjL4T5ZxSloIrCJDHqGKZZIyrZjHL55uIZDofY39/n0WLY2trC8fExj+ZDp81EHZt4kwVoY4ufsAEzjxGRHLBDBGb33wGdn5/j7OyMR4thc3MTOzs7PJoPHYqiINYrhNbpzQKUpnDdGqGT4k2g4+SJTCtiF4OMB/8Hq3uxe38f/rLoThQlsF+5UP+iiAx+1hTIG9ZI+K8RaEeoLvc1kufQ3cCbpfgM884CFD0dBhssB5/fwnvhGTBvOr36pg2Rl3UrsnE6qBEUPognZ6rn0OEKSXl00t/WFJCwhjvbvmat6bTreww6SbVJCy95FksRJZkduT3nNGWCKIqRj5fftEIWR4jiDFMeA1wKUtQYNkq4AYXTT/GjpsFgc55q95EH72EejL/CmFDnCbJyOeakKAZNCBTPAa1ZOv3bhx970Ngo4UVDpGwwn8CyjCQs45YjStaoMbQBVXrInA3sNn/iInVWrtGRGTWGSVKQI0mAHyzjoaQ6Qej78MnynlKSoq4oM2TftmGZ9x/MrDDwMpiuivTnAzCXS0GK4tR5ii+w7q68xrCSZB4cQCERvnywYfLjRSNrFCcd1yfK6lMyrT5l8JT3aMgFiL2c6iVFXcEaigbTHidj5B4UkyKpLcSBChItPq/k1XfF1Gf+blB0DZVPYPjLufxkRj2XpzJuAUhRgiCvPkGQogRBihIEKUoQpChBkKIEQYoSBClKEKQoQZCiBEGKEgQpSgiA/wAA3+hL4gs4kwAAAABJRU5ErkJggg==;" parent="1" vertex="1">
          <mxGeometry x="-29.92" y="1260" width="106" height="61" as="geometry" />
        </mxCell>
        <mxCell id="mgKCpu8R8uO8z9F1_llr-19" value="" style="shape=image;verticalLabelPosition=bottom;labelBackgroundColor=default;verticalAlign=top;aspect=fixed;imageAspect=0;image=data:image/png,iVBORw0KGgoAAAANSUhEUgAAAFMAAAAhCAYAAAClWJfKAAAAAXNSR0IArs4c6QAAAARnQU1BAACxjwv8YQUAAAAJcEhZcwAADsMAAA7DAcdvqGQAAAPHSURBVGhD7Zqvd+JYFMe/u6a4iRtGgSOjwBXXOHDgwNFRraOO+Q+KA0dc4xJHHLjGgQPXrCKOjAouWXX3Jrz2dIcfQ0tId9h8zsnhvXcCXL4vud97c/iDGKTEwp/iNSUGUjFjJBUzRlIxY+R8DChwMFb7MOYrsRCSRbPbRTUrpqcmFPP354l6lQp1hjNaDBtU7ExouVxGh+f7NOndkP4kTt2LT95yQY+DNg0mvlg7nPMQczmjx8X6x886OWqMouELvuexTIcQirkkvQa6eliKtcM5j5yZLUHJZ3gwh6FloZTWy4AN7a6OqqLy6BAykLJZSOFHvYPzMiDbgLEqQRY5MphaWOWzcBwbbhCuuJiaJswtx9SN3nIc4go9Cxa9IqHyQJ6Yh0xuLijXHtJk9np1P6PGCW7zlW1CVbX1rrFbWpoKVbPgRLucMCsbpqpCWwcDx9Ki2KxXweRvLXjmNSQxBxzM55wF5hr69iFBB7AtE2MHmBoazPkbL1ch6ia+TrWaTt6oQfhUoMvagJ68EbU+g3KdmTjpAHzvxVl/eXi7bMJnU6iRzt/fwCcqXNZo8OTRqPWZkOvQG6I5KTvrzMCo41oy0XcVfPmWge6N0ZTCnDOHpFQhi+13pyZsqQpF3p61A9vC2H5d++1BktksZLaBnwgM1K8lmH0XypdvyOgexk0p+u65pKD6HMxHE0m6Db6iwuskzB+o6DtKiwXp7RbdPx6ej94HlyzrYHjjK6QfVuckzi8MaEI3F6BibyHmH0toJij2eAv/m+xvJ+0u5K991Gcuui+1m8A10e1acMu36DdlsbiJO+7iu3FYlQe5ie73KjeB27DRlb+iX5/B3QiGCVzMrTGmbB75MteWpQ+49SNJd7B8uGKhW/RTQ8EsqFdrc7lxTwU0aChWT8ryga443NZmMAy3k8UCtaMW0KNh44IuB28vbY5lr5hRvmRH30hR/oJmXLeFrVuYT0+dMSOifMmOviVf+nqNULhnSQVRBcKbLaZJsT9nsgntrFboMcqnjWFSbsAmtCOYWYdLpNdiPoV3TIGSTvX728mMtLtPnRrQ0MK1YqLJxfLp4b55RzCu80OMBJn1eUHCzcVRvXmmJMO5M1C+U8TK/5v3i1lWsbJu0VRN3O0280TIlwpiJHBtbiT5rkrY0I97arQvDSSIXFZw8ZeD5046cBz8XahDSeoJ+zMid/7mrPv0K3Yc35/RfTFHNyfvyjY5qz8hBCsXKzadjPT+B7zHkP6jI0aOy5kp/yIVM0ZSMWMkFTNGUjFjJBUzNoB/AIZMOZ5c4HtOAAAAAElFTkSuQmCC;" parent="1" vertex="1">
          <mxGeometry x="-18.42" y="1216" width="83" height="33" as="geometry" />
        </mxCell>
        <mxCell id="KOfnYtluvMMYCkwV_I0v-4" value="&lt;b&gt;&lt;font style=&quot;font-size: 17px;&quot;&gt;Cải tiến 2&lt;/font&gt;&lt;/b&gt;" style="text;html=1;align=center;verticalAlign=middle;whiteSpace=wrap;rounded=0;" parent="1" vertex="1">
          <mxGeometry x="140" y="1340" width="90" height="30" as="geometry" />
        </mxCell>
      </root>
    </mxGraphModel>
  </diagram>
</mxfile>
